:version 1.10
:name ASF
:units
  mass 1
  length 1
  angle deg
:documentation
  ASF file generated by Kaydara
:root
  axis xyz
  order  tx ty tz rx ry rz
  position 0 0 0
  orientation 0 0 0
:bonedata
  begin
    id 1
    name RightUpLegDummy
    direction -1 2.30186e-007 8.31532e-007
    length 4.46685
    axis 0 0 0 xyz
  end
  begin
    id 2
    name RightUpLeg
    direction -2.30187e-007 -1 1.24343e-010
    length 16.4045
    axis -3.49089 -0.000906625 0.000286804 xyz
    dof rx ry rz
  end
  begin
    id 3
    name RightLeg
    direction -2.30181e-007 -1 -4.17157e-009
    length 17.5097
    axis 3.68512 0.0193738 -0.131023 xyz
    dof rx ry rz
  end
  begin
    id 4
    name RightFoot
    direction 8.31421e-007 -4.51202e-011 1
    length 6.49508
    axis 4.81691e-005 -0.120479 -0.188788 xyz
    dof rx ry rz
  end
  begin
    id 5
    name RightToes
    direction 0.00124746 -0.014064 0.9999
    length 3.85082
    axis 0.000481921 0.542163 -0.142578 xyz
    dof rx ry rz
  end
  begin
    id 6
    name SpineDummy
    direction 0.0717043 0.9409 -0.331007
    length 10.0032
    axis 0 0 0 xyz
  end
  begin
    id 7
    name Spine
    direction 2.30186e-007 1 4.58806e-011
    length 9.84055
    axis -0.001389 0.000121418 2.40972e-006 xyz
    dof rx ry rz
  end
  begin
    id 8
    name Spine1
    direction 0 0 0
    length 0
    axis -0.001389 0.000121451 1.30017e-006 xyz
    dof rx ry rz
  end
  begin
    id 9
    name HEadDummy
    direction -0.00347485 0.950688 -0.310128
    length 8.00997
    axis -0.001389 0.000121451 1.30017e-006 xyz
  end
  begin
    id 10
    name HEad
    direction -0.0222688 0.980941 0.193023
    length 5.12695
    axis -0.001389 0.000121451 1.30017e-006 xyz
    dof rx ry rz
  end
  begin
    id 11
    name LeftShoulder1Dummy
    direction 0.988871 0.146793 -0.0242004
    length 3.5792
    axis -0.001389 0.000121451 1.30017e-006 xyz
  end
  begin
    id 12
    name LeftShoulder1
    direction 0.993832 0.108932 0.020779
    length 4.16823
    axis -0.001389 0.000121451 1.30017e-006 xyz
    dof rx ry rz
  end
  begin
    id 13
    name LeftArm
    direction 1 3.44807e-006 -8.31404e-007
    length 9.91437
    axis -23.1894 0.134784 0.967509 xyz
    dof rx ry rz
  end
  begin
    id 14
    name LeftForeArm
    direction 1 3.44842e-006 -8.31581e-007
    length 9.08575
    axis -9.91835 -0.06569 -0.177793 xyz
    dof rx ry rz
  end
  begin
    id 15
    name LeftHand
    direction 0.992938 -0.0411636 0.11126
    length 5.32135
    axis -0.00960232 -0.00340091 0.185173 xyz
    dof rx ry rz
  end
  begin
    id 16
    name RightShoulderDummy
    direction -0.988871 0.146793 -0.0241962
    length 3.5792
    axis -0.001389 0.000121451 1.30017e-006 xyz
  end
  begin
    id 17
    name RightShoulder
    direction -0.993832 0.108933 0.0207785
    length 4.16823
    axis 0.215806 0.000203643 -0.0068026 xyz
    dof rx ry rz
  end
  begin
    id 18
    name RightArm
    direction -1 3.90912e-006 8.31284e-007
    length 9.91437
    axis -23.2009 -0.134239 -0.964101 xyz
    dof rx ry rz
  end
  begin
    id 19
    name RightForeArm
    direction -1 3.90882e-006 8.31502e-007
    length 9.08575
    axis -9.92322 0.0658061 0.178867 xyz
    dof rx ry rz
  end
  begin
    id 20
    name RightHand
    direction -0.992843 -0.0414603 0.112003
    length 5.28593
    axis -0.00960638 0.00330671 -0.185228 xyz
    dof rx ry rz
  end
  begin
    id 21
    name LeftUpLegDummy
    direction 1 -2.30186e-007 -8.31532e-007
    length 4.46685
    axis 0 0 0 xyz
  end
  begin
    id 22
    name LeftUpLeg
    direction -2.30187e-007 -1 6.00931e-010
    length 16.4045
    axis -3.48766 0.00143442 -0.000524262 xyz
    dof rx ry rz
  end
  begin
    id 23
    name LeftLeg
    direction -2.30187e-007 -1 1.6669e-009
    length 17.5097
    axis 3.68178 -0.00654042 -0.000285133 xyz
    dof rx ry rz
  end
  begin
    id 24
    name LeftFoot
    direction 8.31532e-007 -4.54478e-011 1
    length 6.49508
    axis 1.87233e-006 4.66016e-005 -8.6538e-006 xyz
    dof rx ry rz
  end
  begin
    id 25
    name LeftToes
    direction 0.00818058 -0.00485161 0.999955
    length 3.85048
    axis 1.06247e-005 4.65869e-005 -8.65513e-006 xyz
    dof rx ry rz
  end
:hierarchy
  begin
    root RightUpLegDummy SpineDummy LeftUpLegDummy
    RightUpLegDummy RightUpLeg
    RightUpLeg RightLeg
    RightLeg RightFoot
    RightFoot RightToes
    SpineDummy Spine
    Spine Spine1
    Spine1 HEadDummy LeftShoulder1Dummy RightShoulderDummy
    HEadDummy HEad
    LeftShoulder1Dummy LeftShoulder1
    LeftShoulder1 LeftArm
    LeftArm LeftForeArm
    LeftForeArm LeftHand
    RightShoulderDummy RightShoulder
    RightShoulder RightArm
    RightArm RightForeArm
    RightForeArm RightHand
    LeftUpLegDummy LeftUpLeg
    LeftUpLeg LeftLeg
    LeftLeg LeftFoot
    LeftFoot LeftToes
  end

:SAMPLES-PER-SECOND 30
:FULLY-SPECIFIED
:DEGREES
39
root  42.0321 33.757 2.54592 -169.966 -49.0663 177.535
RightUpLeg  -8.51611 -12.9009 -0.304385
RightLeg  10.3237 -6.84211 -0.794355
RightFoot  0.344785 0.00487483 -0.0459275
RightToes  -24.1234 -0.100822 -0.203084
Spine  2.7217 -2.71563 2.35512
Spine1  4.77247 -5.63144 4.56986
HEad  38.0186 16.8042 0.374067
LeftShoulder1  0 -2.42657e-020 -4.95415e-022
LeftArm  -34.4302 8.89555 -92.7154
LeftForeArm  62.9078 -13.0629 -2.29085
LeftHand  0.510408 -10.935 -5.70219
RightShoulder  0 2.42657e-020 1.07489e-018
RightArm  -52.115 -24.7685 84.9443
RightForeArm  -30.39 53.0225 13.4322
RightHand  3.76523 15.9364 26.8105
LeftUpLeg  -10.2547 8.43997 1.89855
LeftLeg  10.2072 -8.90819 -1.01166
LeftFoot  4.10031 0.0379726 -0.707706
LeftToes  -15.5512 1.33192e-006 1.13262e-007
40
root  42.0317 33.7581 2.56205 -169.969 -49.107 177.512
RightUpLeg  -8.51055 -12.942 -0.341936
RightLeg  10.3338 -6.84846 -0.794031
RightFoot  0.365595 0.00502064 -0.0481916
RightToes  -24.2127 -0.100822 -0.203084
Spine  2.72026 -2.69556 2.35062
Spine1  4.75316 -5.59262 4.56337
HEad  38.1379 16.8039 0.428942
LeftShoulder1  0 -2.42657e-020 -4.95415e-022
LeftArm  -34.262 8.8512 -92.8246
LeftForeArm  62.7546 -13.1047 -2.29895
LeftHand  0.51318 -10.9722 -5.71286
RightShoulder  0 2.42657e-020 1.07489e-018
RightArm  -52.0537 -24.6969 84.9529
RightForeArm  -30.3426 53.073 13.4577
RightHand  3.75951 15.955 26.7417
LeftUpLeg  -10.2596 8.37858 1.86404
LeftLeg  10.1983 -8.87977 -1.01133
LeftFoot  4.11579 0.0380206 -0.708453
LeftToes  -15.4434 1.33192e-006 1.13262e-007
41
root  42.0312 33.7594 2.57265 -169.98 -49.141 177.511
RightUpLeg  -8.5028 -12.969 -0.352311
RightLeg  10.3262 -6.85111 -0.79341
RightFoot  0.375937 0.00510649 -0.0495245
RightToes  -24.1193 -0.100822 -0.203084
Spine  2.7212 -2.68344 2.34678
Spine1  4.75283 -5.56926 4.55758
HEad  38.1433 16.7963 0.42705
LeftShoulder1  0 -2.42657e-020 -4.95415e-022
LeftArm  -34.2073 8.80647 -92.8679
LeftForeArm  62.5703 -13.1478 -2.30736
LeftHand  0.527884 -11.0956 -5.80425
RightShoulder  0 2.42657e-020 1.07489e-018
RightArm  -51.8946 -24.63 84.9201
RightForeArm  -30.3228 53.0718 13.4572
RightHand  3.76455 15.9496 26.7845
LeftUpLeg  -10.262 8.39678 1.85156
LeftLeg  10.183 -8.92918 -1.01448
LeftFoot  4.13713 0.0382725 -0.712368
LeftToes  -15.4386 1.33192e-006 1.13262e-007
42
root  42.0303 33.7615 2.59314 -169.998 -49.2265 177.485
RightUpLeg  -8.50323 -13.0646 -0.392937
RightLeg  10.3832 -6.84668 -0.799793
RightFoot  0.369202 0.0051848 -0.0507405
RightToes  -24.1228 -0.100822 -0.203084
Spine  2.74493 -2.66148 2.33637
Spine1  4.79616 -5.5276 4.53965
HEad  38.0867 16.7703 0.413836
LeftShoulder1  0 -2.42657e-020 -4.95415e-022
LeftArm  -33.99 8.68775 -92.9375
LeftForeArm  62.6403 -13.2094 -2.31861
LeftHand  0.516112 -11.0391 -5.71059
RightShoulder  0 2.42657e-020 1.07489e-018
RightArm  -51.576 -24.4897 84.827
RightForeArm  -30.425 53.0793 13.4605
RightHand  3.77025 16.007 26.7303
LeftUpLeg  -10.2621 8.30215 1.81708
LeftLeg  10.2067 -8.9214 -1.01733
LeftFoot  4.14986 0.038602 -0.717488
LeftToes  -15.402 1.33192e-006 1.13262e-007
43
root  42.029 33.7643 2.60945 -170.014 -49.3049 177.475
RightUpLeg  -8.4871 -13.1025 -0.417057
RightLeg  10.3875 -6.87733 -0.803883
RightFoot  0.396034 0.00530803 -0.0526539
RightToes  -24.1926 -0.100822 -0.203084
Spine  2.75242 -2.63999 2.32761
Spine1  4.8094 -5.4859 4.52547
HEad  38.1582 16.7179 0.508505
LeftShoulder1  0 -2.42657e-020 -4.95415e-022
LeftArm  -33.819 8.59994 -92.9432
LeftForeArm  62.5609 -13.2367 -2.32386
LeftHand  0.521201 -11.0396 -5.76292
RightShoulder  0 2.42657e-020 1.07489e-018
RightArm  -51.3227 -24.4373 84.7382
RightForeArm  -30.3885 53.1103 13.4762
RightHand  3.75939 15.9616 26.7302
LeftUpLeg  -10.2549 8.24521 1.79726
LeftLeg  10.1792 -8.94562 -1.01645
LeftFoot  4.17319 0.0389603 -0.723057
LeftToes  -15.357 1.33192e-006 1.13262e-007
44
root  42.0283 33.7662 2.62933 -170.027 -49.3987 177.461
RightUpLeg  -8.46531 -13.1769 -0.444084
RightLeg  10.3773 -6.89387 -0.804566
RightFoot  0.423292 0.00552605 -0.0560392
RightToes  -24.2275 -0.100822 -0.203084
Spine  2.75782 -2.61547 2.3202
Spine1  4.81743 -5.43907 4.51623
HEad  38.2819 16.6389 0.51138
LeftShoulder1  0 -2.42657e-020 -4.95415e-022
LeftArm  -33.6612 8.51341 -92.9169
LeftForeArm  62.312 -13.2766 -2.33184
LeftHand  0.538484 -11.1119 -5.90504
RightShoulder  0 2.42657e-020 1.07489e-018
RightArm  -51.0812 -24.407 84.6081
RightForeArm  -30.3159 53.1674 13.5053
RightHand  3.74954 15.9536 26.6764
LeftUpLeg  -10.2564 8.17708 1.76942
LeftLeg  10.1572 -8.97493 -1.01556
LeftFoot  4.2011 0.0393895 -0.729728
LeftToes  -15.2733 1.33192e-006 1.13262e-007
45
root  42.0286 33.7682 2.64987 -170.036 -49.4825 177.444
RightUpLeg  -8.45272 -13.1276 -0.473733
RightLeg  10.3797 -7.02785 -0.820425
RightFoot  0.436678 0.00579881 -0.0602744
RightToes  -24.2438 -0.100822 -0.203084
Spine  2.77462 -2.59359 2.32462
Spine1  4.84978 -5.39545 4.52357
HEad  38.3148 16.6357 0.411172
LeftShoulder1  0 -2.42657e-020 -4.95415e-022
LeftArm  -33.5893 8.44038 -92.9083
LeftForeArm  62.2042 -13.3097 -2.33821
LeftHand  0.528109 -11.0807 -5.81392
RightShoulder  0 2.42657e-020 1.07489e-018
RightArm  -50.7647 -24.3398 84.3144
RightForeArm  -30.124 53.2479 13.5468
RightHand  3.71653 15.8151 26.6761
LeftUpLeg  -10.269 8.10934 1.74012
LeftLeg  10.1554 -8.99461 -1.01748
LeftFoot  4.22121 0.0396914 -0.734419
LeftToes  -15.2394 1.33192e-006 1.13262e-007
46
root  42.0316 33.7701 2.66934 -170.05 -49.5488 177.435
RightUpLeg  -8.43081 -13.1082 -0.496107
RightLeg  10.3519 -7.09919 -0.825228
RightFoot  0.473673 0.00606574 -0.0644191
RightToes  -24.178 -0.100822 -0.203084
Spine  2.78729 -2.57429 2.34274
Spine1  4.87796 -5.35361 4.54932
HEad  38.3958 16.648 0.356693
LeftShoulder1  0 -2.42657e-020 -4.95415e-022
LeftArm  -33.6328 8.39942 -92.9257
LeftForeArm  62.0963 -13.3456 -2.34512
LeftHand  0.520091 -10.9661 -5.78772
RightShoulder  0 2.42657e-020 1.07489e-018
RightArm  -50.4772 -24.2631 83.8425
RightForeArm  -29.7352 53.4372 13.6448
RightHand  3.64362 15.6195 26.4934
LeftUpLeg  -10.2599 8.11393 1.71873
LeftLeg  10.1083 -9.07309 -1.01874
LeftFoot  4.25707 0.0404464 -0.746154
LeftToes  -15.2151 1.33192e-006 1.13262e-007
47
root  42.0424 33.771 2.68705 -170.086 -49.605 177.457
RightUpLeg  -8.42661 -13.145 -0.484266
RightLeg  10.3367 -7.11117 -0.824706
RightFoot  0.491493 0.00626047 -0.0674427
RightToes  -24.2002 -0.100822 -0.203084
Spine  2.81623 -2.56596 2.37917
Spine1  4.93999 -5.33165 4.60201
HEad  38.6572 16.5482 0.3603
LeftShoulder1  0 -2.42657e-020 -4.95415e-022
LeftArm  -33.7529 8.34405 -92.9274
LeftForeArm  62.1212 -13.3329 -2.34271
LeftHand  0.514608 -10.967 -5.73027
RightShoulder  0 2.42657e-020 1.07489e-018
RightArm  -50.4425 -24.1601 83.2501
RightForeArm  -29.1395 53.81 13.8396
RightHand  3.71413 16.1265 26.1625
LeftUpLeg  -10.2585 8.1425 1.72886
LeftLeg  10.0663 -9.15032 -1.02056
LeftFoot  4.28479 0.0411369 -0.756885
LeftToes  -15.3277 1.33192e-006 1.13262e-007
48
root  42.0655 33.7723 2.70226 -170.161 -49.4889 177.537
RightUpLeg  -8.48192 -13.0005 -0.428905
RightLeg  10.3453 -7.13032 -0.827994
RightFoot  0.531538 0.006685 -0.0740346
RightToes  -24.1059 -0.100822 -0.203084
Spine  2.83727 -2.54158 2.42756
Spine1  4.9904 -5.27332 4.66792
HEad  39.1733 16.4475 0.352785
LeftShoulder1  0 -2.42657e-020 -4.95415e-022
LeftArm  -33.8723 8.39639 -92.8907
LeftForeArm  62.1469 -13.343 -2.34453
LeftHand  0.518064 -11.0281 -5.73161
RightShoulder  0 2.42657e-020 1.07489e-018
RightArm  -50.8866 -23.9202 82.5875
RightForeArm  -27.7442 54.2695 14.088
RightHand  3.64853 16.1449 25.6932
LeftUpLeg  -10.2342 8.27933 1.774
LeftLeg  9.99816 -9.18098 -1.01294
LeftFoot  4.32923 0.0417908 -0.767047
LeftToes  -15.3924 1.33192e-006 1.13262e-007
49
root  42.0958 33.7755 2.71515 -170.261 -49.2009 177.639
RightUpLeg  -8.57076 -12.7989 -0.363382
RightLeg  10.3719 -7.03871 -0.820711
RightFoot  0.572116 0.00705396 -0.0797636
RightToes  -24.0066 -0.100822 -0.203084
Spine  2.8799 -2.51908 2.47904
Spine1  5.09053 -5.21369 4.72628
HEad  39.682 16.4024 0.32205
LeftShoulder1  0 -2.42657e-020 -4.95415e-022
LeftArm  -34.0276 8.54226 -92.8001
LeftForeArm  62.063 -13.4316 -2.36117
LeftHand  0.524446 -11.0576 -5.78756
RightShoulder  0 2.42657e-020 1.07489e-018
RightArm  -51.6648 -23.4042 81.8593
RightForeArm  -25.8779 54.809 14.3881
RightHand  3.38028 15.7229 24.5053
LeftUpLeg  -10.1975 8.55257 1.83163
LeftLeg  9.96886 -9.16536 -1.00651
LeftFoot  4.32466 0.0416947 -0.765554
LeftToes  -15.5515 1.33192e-006 1.13262e-007
50
root  42.1361 33.776 2.72269 -170.382 -48.7337 177.776
RightUpLeg  -8.71936 -12.4315 -0.268494
RightLeg  10.4399 -6.92555 -0.8159
RightFoot  0.624965 0.00752494 -0.0870768
RightToes  -24.0682 -0.100822 -0.203084
Spine  2.96662 -2.48507 2.5503
Spine1  5.2799 -5.12838 4.80952
HEad  40.1152 16.3561 0.21973
LeftShoulder1  0 -2.42657e-020 -4.95415e-022
LeftArm  -34.2245 8.72054 -92.6831
LeftForeArm  61.8186 -13.555 -2.38467
LeftHand  0.524472 -11.0493 -5.77343
RightShoulder  0 2.42657e-020 1.07489e-018
RightArm  -52.5589 -23.0219 81.0986
RightForeArm  -23.0237 56.36 15.2869
RightHand  3.25924 15.9323 23.3627
LeftUpLeg  -10.2345 8.87874 1.9235
LeftLeg  10.1222 -9.0341 -1.01662
LeftFoot  4.21051 0.0399307 -0.738139
LeftToes  -15.7275 1.33192e-006 1.13262e-007
51
root  42.185 33.7723 2.72709 -170.498 -48.1499 177.924
RightUpLeg  -8.97665 -11.8813 -0.158091
RightLeg  10.6628 -6.84523 -0.833439
RightFoot  0.596271 0.00738642 -0.0849259
RightToes  -24.0517 -0.100822 -0.203084
Spine  3.06565 -2.4536 2.64404
Spine1  5.4906 -5.04624 4.92558
HEad  40.4892 16.0371 -0.127972
LeftShoulder1  0 -2.42657e-020 -4.95415e-022
LeftArm  -34.5341 8.90916 -92.5457
LeftForeArm  61.7183 -13.5936 -2.39208
LeftHand  0.523794 -11.0093 -5.80474
RightShoulder  0 2.42657e-020 1.07489e-018
RightArm  -53.4832 -23.005 80.3773
RightForeArm  -18.6617 59.3389 17.2435
RightHand  3.16597 16.4197 22.0649
LeftUpLeg  -10.4487 9.1957 2.02183
LeftLeg  10.6318 -8.76395 -1.06525
LeftFoot  3.89893 0.0356316 -0.671324
LeftToes  -15.776 1.33192e-006 1.13262e-007
52
root  42.2475 33.7668 2.72983 -170.663 -47.376 178.141
RightUpLeg  -9.39039 -11.409 -0.000795709
RightLeg  11.1006 -6.458 -0.83654
RightFoot  0.446298 0.00614354 -0.0656271
RightToes  -23.7956 -0.100822 -0.203084
Spine  3.22424 -2.42688 2.77545
Spine1  5.82355 -4.96868 5.09103
HEad  40.5425 16.6029 -0.378405
LeftShoulder1  0 -2.42657e-020 -4.95415e-022
LeftArm  -35.0053 9.05775 -92.4182
LeftForeArm  61.9205 -13.6195 -2.39643
LeftHand  0.518799 -10.9752 -5.7698
RightShoulder  0 2.42657e-020 1.07489e-018
RightArm  -54.2073 -23.1635 79.6948
RightForeArm  -10.6371 63.8117 20.9933
RightHand  2.94447 16.8064 20.1165
LeftUpLeg  -10.8752 9.59684 2.17046
LeftLeg  11.5894 -8.36866 -1.15943
LeftFoot  3.43474 0.0295901 -0.577432
LeftToes  -16.4723 1.33192e-006 1.13262e-007
